# xmcd CD database file
#
# Track frame offsets:
#	180
#	34976
#	140425
#	190779
#	257314
#	305275
#	344191
#
# Disc length: 4715 seconds
#
# Revision: 0
# Processed by: cddbd v1.5.1PL2 Copyright (c) Steve Scherf et al.
# Submitted via: CDex 1.51
#
DISCID=61126907
DTITLE=Ehran Elisha Ensemble - Shoresh
DYEAR=1997
DGENRE=Jazz
TTITLE0=Prologue: Metzada (solo)
TTITLE1=Shoresh
TTITLE2=Hamekasher
TTITLE3=Medurot
TTITLE4=Kayitz
TTITLE5=Or
TTITLE6=Epilogue: Echo (solo)
EXTD=YEAR: 1997
EXTT0=
EXTT1=
EXTT2=
EXTT3=
EXTT4=
EXTT5=
EXTT6=
PLAYORDER=
